<svg viewBox="0 0 98 110" xmlns="http://www.w3.org/2000/svg">
<mask id="path-1-inside-1" fill="white">
<path d="M13.2964 24.1277C5.96462 24.1277 0 30.2068 0 37.6789C0 44.6094 5.13224 50.3377 11.7261 51.1324V61.5803C11.7261 62.4642 12.4293 63.1809 13.2966 63.1809C14.1639 63.1809 14.8671 62.4642 14.8671 61.5803V51.1324C21.461 50.3377 26.5933 44.6091 26.5933 37.6789C26.5931 30.2068 20.6282 24.1277 13.2964 24.1277ZM13.2964 48.0291C7.69669 48.0291 3.14083 43.386 3.14083 37.6789C3.14083 31.9719 7.69669 27.3287 13.2964 27.3287C18.8962 27.3287 23.452 31.9719 23.452 37.6789C23.452 43.386 18.8964 48.0291 13.2964 48.0291Z"/>
<path d="M13.2964 30.9568C9.65948 30.9568 6.70047 33.9725 6.70047 37.6792C6.70047 41.3858 9.65948 44.4015 13.2964 44.4015C16.9334 44.4015 19.8924 41.3858 19.8924 37.6792C19.8924 33.9725 16.9334 30.9568 13.2964 30.9568ZM13.2964 41.2003C11.3913 41.2003 9.84151 39.6206 9.84151 37.6792C9.84151 35.7378 11.3915 34.158 13.2964 34.158C15.2015 34.158 16.7514 35.7378 16.7514 37.6792C16.7514 39.6206 15.2015 41.2003 13.2964 41.2003Z"/>
<path d="M96.2162 38.6393H95.2739V11.2168C95.2739 6.5687 91.5634 2.7873 87.0029 2.7873H83.548V1.82693C83.548 0.943026 82.845 0.226318 81.9775 0.226318H77.7896C75.5383 0.226318 73.7065 2.09317 73.7065 4.3877C73.7065 6.68222 75.5383 8.54907 77.7896 8.54907H81.9775C82.845 8.54907 83.548 7.83237 83.548 6.94846V5.98809H87.0029C89.8317 5.98809 92.1331 8.33374 92.1331 11.2165V38.6391H91.1908C90.3233 38.6391 89.6202 39.3558 89.6202 40.2397V42.8005C89.6202 49.9196 83.9371 55.7114 76.952 55.7114H56.8502C49.8651 55.7114 44.182 49.9196 44.182 42.8005V40.2397C44.182 39.3558 43.4788 38.6391 42.6115 38.6391H41.6692V11.2168C41.6692 8.33395 43.9707 5.98831 46.7993 5.98831H50.2543V6.94867C50.2543 7.83258 50.9573 8.54928 51.8248 8.54928H56.0126C58.264 8.54928 60.0958 6.68244 60.0958 4.38791C60.096 2.09317 58.2642 0.226318 56.0126 0.226318H51.8248C50.9573 0.226318 50.2543 0.943026 50.2543 1.82693V2.7873H46.7993C42.2387 2.7873 38.5284 6.56891 38.5284 11.2168V38.6393H37.5861C36.7188 38.6393 36.0155 39.356 36.0155 40.2399V42.8007C36.0155 54.5089 45.3619 64.0346 56.8502 64.0346H62.818V71.8238C62.818 72.7077 63.521 73.4244 64.3885 73.4244H65.3308V82.0673C65.3308 95.3054 54.7631 106.075 41.7741 106.075H38.4239C25.4347 106.075 14.8672 95.3054 14.8672 82.0673V69.334C14.8672 68.4501 14.1639 67.7334 13.2966 67.7334C12.4293 67.7334 11.7261 68.4501 11.7261 69.334V82.0673C11.7261 97.0707 23.7026 109.277 38.4239 109.277H41.7741C56.4954 109.277 68.4719 97.0707 68.4719 82.0673V73.4244H69.4142C70.2817 73.4244 70.9847 72.7077 70.9847 71.8238V64.0346H76.9525C88.4405 64.0346 97.7872 54.5091 97.7872 42.8007V40.2399C97.7867 39.356 97.0837 38.6393 96.2162 38.6393ZM80.407 5.34806H77.7896C77.2701 5.34806 76.8473 4.91719 76.8473 4.3877C76.8473 3.8582 77.2701 3.42733 77.7896 3.42733H80.407V5.34806ZM53.3953 3.42733H56.0126C56.5322 3.42733 56.9549 3.8582 56.9549 4.3877C56.9549 4.91719 56.5322 5.34806 56.0126 5.34806H53.3953V3.42733ZM94.6459 42.8007C94.6459 52.7438 86.7087 60.8334 76.9522 60.8334H69.4142C68.5467 60.8334 67.8437 61.5501 67.8437 62.434V70.2232H65.959V62.434C65.959 61.5501 65.256 60.8334 64.3885 60.8334H56.8504C47.094 60.8334 39.1568 52.7438 39.1568 42.8007V41.8403H41.0414V42.8007C41.0414 51.6851 48.1333 58.9128 56.8507 58.9128H76.9525C85.6698 58.9128 92.7617 51.6851 92.7617 42.8007V41.8403H94.6463L94.6459 42.8007Z"/>
<path d="M66.9011 25.835C59.8005 25.835 54.0235 31.7226 54.0235 38.9594C54.0235 45.5739 58.8375 49.523 66.9011 49.523C74.9648 49.523 79.7787 45.5739 79.7787 38.9594C79.7789 31.7226 74.002 25.835 66.9011 25.835ZM66.9011 46.322C63.2648 46.322 57.1643 45.3654 57.1643 38.9594C57.1643 33.4877 61.5321 29.036 66.9011 29.036C72.2701 29.036 76.6379 33.4877 76.6379 38.9594C76.6379 45.3654 70.5374 46.322 66.9011 46.322Z"/>
<path d="M60.6194 13.0306C57.4097 13.0306 55.2799 17.0766 55.2799 19.753C55.2799 22.7538 57.6751 25.1948 60.6194 25.1948C63.5638 25.1948 65.959 22.7538 65.959 19.753C65.9588 17.0768 63.8292 13.0306 60.6194 13.0306ZM60.6194 21.9938C59.4071 21.9938 58.4207 20.9887 58.4207 19.753C58.4207 18.2393 59.6742 16.2318 60.6194 16.2318C61.5647 16.2318 62.8182 18.2393 62.8182 19.753C62.818 20.9885 61.8318 21.9938 60.6194 21.9938Z"/>
<path d="M73.183 13.0306C69.9732 13.0306 67.8434 17.0766 67.8434 19.753C67.8434 22.7538 70.2386 25.1948 73.183 25.1948C76.1273 25.1948 78.5225 22.7538 78.5225 19.753C78.5225 17.0768 76.3927 13.0306 73.183 13.0306ZM73.183 21.9938C71.9706 21.9938 70.9842 20.9887 70.9842 19.753C70.9842 18.2393 72.2377 16.2318 73.183 16.2318C74.1282 16.2318 75.3817 18.2393 75.3817 19.753C75.3817 20.9885 74.3953 21.9938 73.183 21.9938Z"/>
<path d="M83.2338 20.7133C80.024 20.7133 77.8943 24.7592 77.8943 27.4356C77.8943 30.4364 80.2895 32.8775 83.2338 32.8775C86.1782 32.8775 88.5734 30.4364 88.5734 27.4356C88.5734 24.7592 86.4436 20.7133 83.2338 20.7133ZM83.2338 29.6763C82.0215 29.6763 81.0351 28.6712 81.0351 27.4354C81.0351 25.9217 82.2886 23.9143 83.2338 23.9143C84.1791 23.9143 85.4326 25.9217 85.4326 27.4354C85.4324 28.6712 84.4462 29.6763 83.2338 29.6763Z"/>
<path d="M50.5686 20.7133C47.3588 20.7133 45.229 24.7592 45.229 27.4356C45.229 30.4364 47.6242 32.8775 50.5686 32.8775C53.5129 32.8775 55.9081 30.4364 55.9081 27.4356C55.9081 24.7592 53.7784 20.7133 50.5686 20.7133ZM50.5686 29.6763C49.3562 29.6763 48.3698 28.6712 48.3698 27.4354C48.3698 25.9217 49.6233 23.9143 50.5686 23.9143C51.5138 23.9143 52.7673 25.9217 52.7673 27.4354C52.7671 28.6712 51.7809 29.6763 50.5686 29.6763Z"/>
</mask>
<path d="M13.2964 24.1277C5.96462 24.1277 0 30.2068 0 37.6789C0 44.6094 5.13224 50.3377 11.7261 51.1324V61.5803C11.7261 62.4642 12.4293 63.1809 13.2966 63.1809C14.1639 63.1809 14.8671 62.4642 14.8671 61.5803V51.1324C21.461 50.3377 26.5933 44.6091 26.5933 37.6789C26.5931 30.2068 20.6282 24.1277 13.2964 24.1277ZM13.2964 48.0291C7.69669 48.0291 3.14083 43.386 3.14083 37.6789C3.14083 31.9719 7.69669 27.3287 13.2964 27.3287C18.8962 27.3287 23.452 31.9719 23.452 37.6789C23.452 43.386 18.8964 48.0291 13.2964 48.0291Z"/>
<path d="M13.2964 30.9568C9.65948 30.9568 6.70047 33.9725 6.70047 37.6792C6.70047 41.3858 9.65948 44.4015 13.2964 44.4015C16.9334 44.4015 19.8924 41.3858 19.8924 37.6792C19.8924 33.9725 16.9334 30.9568 13.2964 30.9568ZM13.2964 41.2003C11.3913 41.2003 9.84151 39.6206 9.84151 37.6792C9.84151 35.7378 11.3915 34.158 13.2964 34.158C15.2015 34.158 16.7514 35.7378 16.7514 37.6792C16.7514 39.6206 15.2015 41.2003 13.2964 41.2003Z"/>
<path d="M96.2162 38.6393H95.2739V11.2168C95.2739 6.5687 91.5634 2.7873 87.0029 2.7873H83.548V1.82693C83.548 0.943026 82.845 0.226318 81.9775 0.226318H77.7896C75.5383 0.226318 73.7065 2.09317 73.7065 4.3877C73.7065 6.68222 75.5383 8.54907 77.7896 8.54907H81.9775C82.845 8.54907 83.548 7.83237 83.548 6.94846V5.98809H87.0029C89.8317 5.98809 92.1331 8.33374 92.1331 11.2165V38.6391H91.1908C90.3233 38.6391 89.6202 39.3558 89.6202 40.2397V42.8005C89.6202 49.9196 83.9371 55.7114 76.952 55.7114H56.8502C49.8651 55.7114 44.182 49.9196 44.182 42.8005V40.2397C44.182 39.3558 43.4788 38.6391 42.6115 38.6391H41.6692V11.2168C41.6692 8.33395 43.9707 5.98831 46.7993 5.98831H50.2543V6.94867C50.2543 7.83258 50.9573 8.54928 51.8248 8.54928H56.0126C58.264 8.54928 60.0958 6.68244 60.0958 4.38791C60.096 2.09317 58.2642 0.226318 56.0126 0.226318H51.8248C50.9573 0.226318 50.2543 0.943026 50.2543 1.82693V2.7873H46.7993C42.2387 2.7873 38.5284 6.56891 38.5284 11.2168V38.6393H37.5861C36.7188 38.6393 36.0155 39.356 36.0155 40.2399V42.8007C36.0155 54.5089 45.3619 64.0346 56.8502 64.0346H62.818V71.8238C62.818 72.7077 63.521 73.4244 64.3885 73.4244H65.3308V82.0673C65.3308 95.3054 54.7631 106.075 41.7741 106.075H38.4239C25.4347 106.075 14.8672 95.3054 14.8672 82.0673V69.334C14.8672 68.4501 14.1639 67.7334 13.2966 67.7334C12.4293 67.7334 11.7261 68.4501 11.7261 69.334V82.0673C11.7261 97.0707 23.7026 109.277 38.4239 109.277H41.7741C56.4954 109.277 68.4719 97.0707 68.4719 82.0673V73.4244H69.4142C70.2817 73.4244 70.9847 72.7077 70.9847 71.8238V64.0346H76.9525C88.4405 64.0346 97.7872 54.5091 97.7872 42.8007V40.2399C97.7867 39.356 97.0837 38.6393 96.2162 38.6393ZM80.407 5.34806H77.7896C77.2701 5.34806 76.8473 4.91719 76.8473 4.3877C76.8473 3.8582 77.2701 3.42733 77.7896 3.42733H80.407V5.34806ZM53.3953 3.42733H56.0126C56.5322 3.42733 56.9549 3.8582 56.9549 4.3877C56.9549 4.91719 56.5322 5.34806 56.0126 5.34806H53.3953V3.42733ZM94.6459 42.8007C94.6459 52.7438 86.7087 60.8334 76.9522 60.8334H69.4142C68.5467 60.8334 67.8437 61.5501 67.8437 62.434V70.2232H65.959V62.434C65.959 61.5501 65.256 60.8334 64.3885 60.8334H56.8504C47.094 60.8334 39.1568 52.7438 39.1568 42.8007V41.8403H41.0414V42.8007C41.0414 51.6851 48.1333 58.9128 56.8507 58.9128H76.9525C85.6698 58.9128 92.7617 51.6851 92.7617 42.8007V41.8403H94.6463L94.6459 42.8007Z"/>
<path d="M66.9011 25.835C59.8005 25.835 54.0235 31.7226 54.0235 38.9594C54.0235 45.5739 58.8375 49.523 66.9011 49.523C74.9648 49.523 79.7787 45.5739 79.7787 38.9594C79.7789 31.7226 74.002 25.835 66.9011 25.835ZM66.9011 46.322C63.2648 46.322 57.1643 45.3654 57.1643 38.9594C57.1643 33.4877 61.5321 29.036 66.9011 29.036C72.2701 29.036 76.6379 33.4877 76.6379 38.9594C76.6379 45.3654 70.5374 46.322 66.9011 46.322Z"/>
<path d="M60.6194 13.0306C57.4097 13.0306 55.2799 17.0766 55.2799 19.753C55.2799 22.7538 57.6751 25.1948 60.6194 25.1948C63.5638 25.1948 65.959 22.7538 65.959 19.753C65.9588 17.0768 63.8292 13.0306 60.6194 13.0306ZM60.6194 21.9938C59.4071 21.9938 58.4207 20.9887 58.4207 19.753C58.4207 18.2393 59.6742 16.2318 60.6194 16.2318C61.5647 16.2318 62.8182 18.2393 62.8182 19.753C62.818 20.9885 61.8318 21.9938 60.6194 21.9938Z"/>
<path d="M73.183 13.0306C69.9732 13.0306 67.8434 17.0766 67.8434 19.753C67.8434 22.7538 70.2386 25.1948 73.183 25.1948C76.1273 25.1948 78.5225 22.7538 78.5225 19.753C78.5225 17.0768 76.3927 13.0306 73.183 13.0306ZM73.183 21.9938C71.9706 21.9938 70.9842 20.9887 70.9842 19.753C70.9842 18.2393 72.2377 16.2318 73.183 16.2318C74.1282 16.2318 75.3817 18.2393 75.3817 19.753C75.3817 20.9885 74.3953 21.9938 73.183 21.9938Z"/>
<path d="M83.2338 20.7133C80.024 20.7133 77.8943 24.7592 77.8943 27.4356C77.8943 30.4364 80.2895 32.8775 83.2338 32.8775C86.1782 32.8775 88.5734 30.4364 88.5734 27.4356C88.5734 24.7592 86.4436 20.7133 83.2338 20.7133ZM83.2338 29.6763C82.0215 29.6763 81.0351 28.6712 81.0351 27.4354C81.0351 25.9217 82.2886 23.9143 83.2338 23.9143C84.1791 23.9143 85.4326 25.9217 85.4326 27.4354C85.4324 28.6712 84.4462 29.6763 83.2338 29.6763Z"/>
<path d="M50.5686 20.7133C47.3588 20.7133 45.229 24.7592 45.229 27.4356C45.229 30.4364 47.6242 32.8775 50.5686 32.8775C53.5129 32.8775 55.9081 30.4364 55.9081 27.4356C55.9081 24.7592 53.7784 20.7133 50.5686 20.7133ZM50.5686 29.6763C49.3562 29.6763 48.3698 28.6712 48.3698 27.4354C48.3698 25.9217 49.6233 23.9143 50.5686 23.9143C51.5138 23.9143 52.7673 25.9217 52.7673 27.4354C52.7671 28.6712 51.7809 29.6763 50.5686 29.6763Z"/>
<path d="M13.2964 24.1277C5.96462 24.1277 0 30.2068 0 37.6789C0 44.6094 5.13224 50.3377 11.7261 51.1324V61.5803C11.7261 62.4642 12.4293 63.1809 13.2966 63.1809C14.1639 63.1809 14.8671 62.4642 14.8671 61.5803V51.1324C21.461 50.3377 26.5933 44.6091 26.5933 37.6789C26.5931 30.2068 20.6282 24.1277 13.2964 24.1277ZM13.2964 48.0291C7.69669 48.0291 3.14083 43.386 3.14083 37.6789C3.14083 31.9719 7.69669 27.3287 13.2964 27.3287C18.8962 27.3287 23.452 31.9719 23.452 37.6789C23.452 43.386 18.8964 48.0291 13.2964 48.0291Z" stroke="#1F1C1D" stroke-width="2" mask="url(#path-1-inside-1)"/>
<path d="M13.2964 30.9568C9.65948 30.9568 6.70047 33.9725 6.70047 37.6792C6.70047 41.3858 9.65948 44.4015 13.2964 44.4015C16.9334 44.4015 19.8924 41.3858 19.8924 37.6792C19.8924 33.9725 16.9334 30.9568 13.2964 30.9568ZM13.2964 41.2003C11.3913 41.2003 9.84151 39.6206 9.84151 37.6792C9.84151 35.7378 11.3915 34.158 13.2964 34.158C15.2015 34.158 16.7514 35.7378 16.7514 37.6792C16.7514 39.6206 15.2015 41.2003 13.2964 41.2003Z" stroke="#1F1C1D" stroke-width="2" mask="url(#path-1-inside-1)"/>
<path d="M96.2162 38.6393H95.2739V11.2168C95.2739 6.5687 91.5634 2.7873 87.0029 2.7873H83.548V1.82693C83.548 0.943026 82.845 0.226318 81.9775 0.226318H77.7896C75.5383 0.226318 73.7065 2.09317 73.7065 4.3877C73.7065 6.68222 75.5383 8.54907 77.7896 8.54907H81.9775C82.845 8.54907 83.548 7.83237 83.548 6.94846V5.98809H87.0029C89.8317 5.98809 92.1331 8.33374 92.1331 11.2165V38.6391H91.1908C90.3233 38.6391 89.6202 39.3558 89.6202 40.2397V42.8005C89.6202 49.9196 83.9371 55.7114 76.952 55.7114H56.8502C49.8651 55.7114 44.182 49.9196 44.182 42.8005V40.2397C44.182 39.3558 43.4788 38.6391 42.6115 38.6391H41.6692V11.2168C41.6692 8.33395 43.9707 5.98831 46.7993 5.98831H50.2543V6.94867C50.2543 7.83258 50.9573 8.54928 51.8248 8.54928H56.0126C58.264 8.54928 60.0958 6.68244 60.0958 4.38791C60.096 2.09317 58.2642 0.226318 56.0126 0.226318H51.8248C50.9573 0.226318 50.2543 0.943026 50.2543 1.82693V2.7873H46.7993C42.2387 2.7873 38.5284 6.56891 38.5284 11.2168V38.6393H37.5861C36.7188 38.6393 36.0155 39.356 36.0155 40.2399V42.8007C36.0155 54.5089 45.3619 64.0346 56.8502 64.0346H62.818V71.8238C62.818 72.7077 63.521 73.4244 64.3885 73.4244H65.3308V82.0673C65.3308 95.3054 54.7631 106.075 41.7741 106.075H38.4239C25.4347 106.075 14.8672 95.3054 14.8672 82.0673V69.334C14.8672 68.4501 14.1639 67.7334 13.2966 67.7334C12.4293 67.7334 11.7261 68.4501 11.7261 69.334V82.0673C11.7261 97.0707 23.7026 109.277 38.4239 109.277H41.7741C56.4954 109.277 68.4719 97.0707 68.4719 82.0673V73.4244H69.4142C70.2817 73.4244 70.9847 72.7077 70.9847 71.8238V64.0346H76.9525C88.4405 64.0346 97.7872 54.5091 97.7872 42.8007V40.2399C97.7867 39.356 97.0837 38.6393 96.2162 38.6393ZM80.407 5.34806H77.7896C77.2701 5.34806 76.8473 4.91719 76.8473 4.3877C76.8473 3.8582 77.2701 3.42733 77.7896 3.42733H80.407V5.34806ZM53.3953 3.42733H56.0126C56.5322 3.42733 56.9549 3.8582 56.9549 4.3877C56.9549 4.91719 56.5322 5.34806 56.0126 5.34806H53.3953V3.42733ZM94.6459 42.8007C94.6459 52.7438 86.7087 60.8334 76.9522 60.8334H69.4142C68.5467 60.8334 67.8437 61.5501 67.8437 62.434V70.2232H65.959V62.434C65.959 61.5501 65.256 60.8334 64.3885 60.8334H56.8504C47.094 60.8334 39.1568 52.7438 39.1568 42.8007V41.8403H41.0414V42.8007C41.0414 51.6851 48.1333 58.9128 56.8507 58.9128H76.9525C85.6698 58.9128 92.7617 51.6851 92.7617 42.8007V41.8403H94.6463L94.6459 42.8007Z" stroke="#1F1C1D" stroke-width="2" mask="url(#path-1-inside-1)"/>
<path d="M66.9011 25.835C59.8005 25.835 54.0235 31.7226 54.0235 38.9594C54.0235 45.5739 58.8375 49.523 66.9011 49.523C74.9648 49.523 79.7787 45.5739 79.7787 38.9594C79.7789 31.7226 74.002 25.835 66.9011 25.835ZM66.9011 46.322C63.2648 46.322 57.1643 45.3654 57.1643 38.9594C57.1643 33.4877 61.5321 29.036 66.9011 29.036C72.2701 29.036 76.6379 33.4877 76.6379 38.9594C76.6379 45.3654 70.5374 46.322 66.9011 46.322Z" stroke="#1F1C1D" stroke-width="2" mask="url(#path-1-inside-1)"/>
<path d="M60.6194 13.0306C57.4097 13.0306 55.2799 17.0766 55.2799 19.753C55.2799 22.7538 57.6751 25.1948 60.6194 25.1948C63.5638 25.1948 65.959 22.7538 65.959 19.753C65.9588 17.0768 63.8292 13.0306 60.6194 13.0306ZM60.6194 21.9938C59.4071 21.9938 58.4207 20.9887 58.4207 19.753C58.4207 18.2393 59.6742 16.2318 60.6194 16.2318C61.5647 16.2318 62.8182 18.2393 62.8182 19.753C62.818 20.9885 61.8318 21.9938 60.6194 21.9938Z" stroke="#1F1C1D" stroke-width="2" mask="url(#path-1-inside-1)"/>
<path d="M73.183 13.0306C69.9732 13.0306 67.8434 17.0766 67.8434 19.753C67.8434 22.7538 70.2386 25.1948 73.183 25.1948C76.1273 25.1948 78.5225 22.7538 78.5225 19.753C78.5225 17.0768 76.3927 13.0306 73.183 13.0306ZM73.183 21.9938C71.9706 21.9938 70.9842 20.9887 70.9842 19.753C70.9842 18.2393 72.2377 16.2318 73.183 16.2318C74.1282 16.2318 75.3817 18.2393 75.3817 19.753C75.3817 20.9885 74.3953 21.9938 73.183 21.9938Z" stroke="#1F1C1D" stroke-width="2" mask="url(#path-1-inside-1)"/>
<path d="M83.2338 20.7133C80.024 20.7133 77.8943 24.7592 77.8943 27.4356C77.8943 30.4364 80.2895 32.8775 83.2338 32.8775C86.1782 32.8775 88.5734 30.4364 88.5734 27.4356C88.5734 24.7592 86.4436 20.7133 83.2338 20.7133ZM83.2338 29.6763C82.0215 29.6763 81.0351 28.6712 81.0351 27.4354C81.0351 25.9217 82.2886 23.9143 83.2338 23.9143C84.1791 23.9143 85.4326 25.9217 85.4326 27.4354C85.4324 28.6712 84.4462 29.6763 83.2338 29.6763Z" stroke="#1F1C1D" stroke-width="2" mask="url(#path-1-inside-1)"/>
<path d="M50.5686 20.7133C47.3588 20.7133 45.229 24.7592 45.229 27.4356C45.229 30.4364 47.6242 32.8775 50.5686 32.8775C53.5129 32.8775 55.9081 30.4364 55.9081 27.4356C55.9081 24.7592 53.7784 20.7133 50.5686 20.7133ZM50.5686 29.6763C49.3562 29.6763 48.3698 28.6712 48.3698 27.4354C48.3698 25.9217 49.6233 23.9143 50.5686 23.9143C51.5138 23.9143 52.7673 25.9217 52.7673 27.4354C52.7671 28.6712 51.7809 29.6763 50.5686 29.6763Z" stroke="#1F1C1D" stroke-width="2" mask="url(#path-1-inside-1)"/>
</svg>
