<svg xmlns="http://www.w3.org/2000/svg" xmlns:xlink="http://www.w3.org/1999/xlink"><symbol id="minus" viewBox="0 0 16 2">
<path d="M0 1H16" stroke="white" stroke-width="2"/>
</symbol><symbol id="plus" viewBox="0 0 16 16">
<path d="M8 0V16M0 8H16" stroke="#A07B50" stroke-width="2"/>
</symbol><symbol id="twitter" viewBox="0 0 22 16">
<path d="M19.5074 7.11334C20.743 7.00572 21.5811 6.41271 21.9036 5.60809C21.4579 5.89714 20.0743 6.21227 19.3102 5.91215C19.2728 5.72261 19.231 5.54259 19.1899 5.38005C18.6077 3.12304 16.6142 1.3047 14.5254 1.52437C14.6944 1.45233 14.8658 1.38527 15.0367 1.32506C15.2666 1.23812 16.6156 1.00642 16.4031 0.503749C16.2241 0.061612 14.576 0.837889 14.2657 0.939352C14.6753 0.77671 15.3528 0.496945 15.4254 0C14.7978 0.0908789 14.1817 0.404122 13.7056 0.859596C13.8775 0.664285 14.0079 0.426261 14.0356 0.170094C12.3617 1.29903 11.3838 3.57505 10.5925 5.78288C9.97117 5.14716 9.42045 4.64654 8.9264 4.36856C7.54042 3.58391 5.88325 2.76524 3.28187 1.74576C3.20202 2.65439 3.70753 3.86254 5.16414 4.66598C4.84855 4.62138 4.27144 4.7209 3.80988 4.83759C3.99785 5.87851 4.61174 6.73611 6.27366 7.15081C5.51416 7.20373 5.12164 7.38619 4.7659 7.77946C5.11182 8.50341 5.95593 9.35545 7.47439 9.18055C5.78617 9.94873 6.78602 11.3713 8.15973 11.1591C5.81629 13.7145 2.1216 13.5267 0 11.3894C5.53937 19.358 17.5807 16.102 19.3751 8.42673C20.7196 8.43883 21.5099 7.93508 22 7.37971C21.2254 7.51849 20.1027 7.37507 19.5074 7.11334Z"/>
</symbol><symbol id="vk" viewBox="0 0 25 14">
<path d="M24.7772 12.4871C24.71 12.3767 24.2943 11.4902 22.2942 9.66827C20.2003 7.76041 20.4815 8.0702 23.0036 4.77132C24.5397 2.76224 25.1538 1.53532 24.9616 1.01081C24.7787 0.510836 23.649 0.64273 23.649 0.64273L19.8924 0.664201C19.8924 0.664201 19.6143 0.627393 19.4065 0.748552C19.2049 0.868177 19.0752 1.14423 19.0752 1.14423C19.0752 1.14423 18.4798 2.69936 17.686 4.02136C16.0125 6.81108 15.3421 6.95831 15.0686 6.785C14.4327 6.38165 14.592 5.1624 14.592 4.29742C14.592 1.59359 15.0093 0.46636 13.7779 0.174966C13.3685 0.0783461 13.0685 0.0139328 12.0231 0.00319722C10.6824 -0.0106056 9.54636 0.00779816 8.90413 0.316062C8.47597 0.521571 8.14626 0.980134 8.34784 1.00621C8.59629 1.03841 9.15883 1.15497 9.45729 1.55372C9.84326 2.06749 9.8292 3.22386 9.8292 3.22386C9.8292 3.22386 10.0511 6.40619 9.31197 6.80187C8.80412 7.07333 8.10876 6.51968 6.61646 3.98762C5.85234 2.69169 5.27417 1.25772 5.27417 1.25772C5.27417 1.25772 5.16323 0.990869 4.96478 0.848239C4.72413 0.674937 4.38661 0.619725 4.38661 0.619725L0.814471 0.641196C0.814471 0.641196 0.278494 0.656533 0.0816048 0.885047C-0.093408 1.08902 0.0675413 1.50924 0.0675413 1.50924C0.0675413 1.50924 2.86462 7.93064 6.03048 11.1682C8.93538 14.1358 12.2325 13.941 12.2325 13.941H13.7264C13.7264 13.941 14.178 13.8919 14.4077 13.6481C14.6202 13.4242 14.6124 13.004 14.6124 13.004C14.6124 13.004 14.5827 11.0363 15.514 10.7464C16.4312 10.4612 17.6095 12.6482 18.858 13.4901C19.8018 14.1266 20.519 13.987 20.519 13.987L23.8584 13.941C23.8584 13.941 25.6054 13.8352 24.7772 12.4871Z"/>
</symbol></svg>